<svg version="1.2" xmlns="http://www.w3.org/2000/svg" viewBox="0 0 1095 1521" width="1095" height="1521">
	<title>ferrra-svg</title>
	<style>
		.s0 { fill: #ffffff } 
	</style>
	<path id="Layer" class="s0" d="m508.5 26.2c-0.6-3.4 4.8-6.8 6.8-11.6 2.8-5.4 3.4-14.2 3.4-14.2 2.8 0 4.1 2.7 5.5 5.4 7.5 12.3 10.2 14.3 15.6 23.1 3.4 4.8 6.2 10.2 4.1 14.3-1.3 4.1-8.1 0.7-12.9-0.7-5.4-1.3-7.5-3.4-12.9-6.1-5.5-2.7-8.9-6.8-9.6-10.2z"/>
	<path id="Layer" fill-rule="evenodd" class="s0" d="m1093.6 644c-2.8 14.3-9.6 26.5-24.5 45.6-15 19-14.3 36.7-14.3 36.7 0 0-1.4 8.2-2.7 25.9-1.4 17.6 4 44.9 4 44.9 0 0 4.8 22.4 5.5 39.4 0.7 17.7 0.7 56.5-15.7 87.1-6.8 12.3-20.4 29.3-20.4 29.3 0 0-10.2 10.8-19 17-8.2 6.8-29.3 16.3-29.3 16.3l-16.3 5.4c-2 0-3.4 2.1-3.4 2.1l2 4.1 4.8 10.9c0 0 4.8 14.2 6.1 25.1 1.4 11.6-0.6 13.6-2 22.5-1.4 8.1-5.4 4.1-6.1 20.4-0.7 14.3 6.1 21.8 4.7 37.4-0.6 6.8-8.8-8.8-12.2-15.6-8.2-14.3-6.1-36.8-6.1-42.2 0-6.1-0.7-12.3-2.8-19.1-2-9.5-6.1-16.3-10.2-21.7-4-5.5-8.8-8.9-10.2-8.2l-1.3 4.8 3.4 8.1 6.1 10.9c0 0 2.7 7.5 3.4 21.8 1.4 14.9-3.4 32.6-3.4 32.6 0 0-6.1 19.8-12.2 32-6.8 13.6-21.8 31.3-21.8 31.3 0 0-10.9 10.2-19.1 26.5-8.1 16.4-1.3 23.2-4 25.2-3.4 2.1-9.6-8.8-11.6-17-1.4-7.5-0.7-10.9 2-19 2.8-7.5 9.6-19.1 9.6-19.1l9.5-16.3c0 0 12.2-22.5 15.6-38.8 3.4-16.3-0.7-34-0.7-34 0 0-0.6-5.5-4.7-5.5-4.1 0-7.5 4.1-8.9 8.2-2.7 8.8 2.1 7.5-3.4 22.4-4 11.6-5.4 10.3-7.4 17.1-2.1 8.1-3.4 16.3-3.4 21.7 0 4.8-2.8 2.8-2.8 2.8 0 0-4.7-9.6-4.7-21.1 0-6.8 0-10.2 0.7-16.4 1.3-9.5 5.4-25.1 5.4-25.1 0 0 4.1-15.7 3.4-29.3-1.4-13.6-6.1-16.3-6.1-16.3 0 0-1.4-2.1-6.8-1.4-5.5 0.7-5.5 10.2-5.5 10.2 0 0-2 13.6-4 22.5-6.2 23.8-13.7 36-27.9 55.8-12.3 17.6-29.3 33.3-38.1 40.8-8.2 7.5-34.7 26.5-34.7 26.5l-30.6 20.4c0 0-12.3 11.6-17.7 25.9-5.5 14.3-5.5 25.2-2.1 38.1 2.8 12.9 7.5 19 10.2 22.4 2.8 4.1 7.5 10.2 8.9 17.7 1.3 4.8 0.7 7.5 0.7 12.3 0 4 0.6 6.1 0.6 10.2 0 6.1 0.7 10.9-2.7 16.3-2.7 4.1-10.2 7.5-10.2 7.5 0 0-8.8 4.1-13.6 6.8-52.4 32-71.4 52.4-100.7 87.8-8.8 10.8-2 10.2-12.2 23.8-6.1 8.1-19.7 8.1-25.2 17.7-7.5 12.9 15.7 25.8-10.9 37.4-34 14.3-92.5 4.1-93.8-0.7-2.8-12.9 11.5-27.9 17-33.3 23.8-25.9 45.5-26.6 53-48.3 1.4-4.1 0.7-8.2 19.8-22.5 13.6-9.5 67.3-49.7 90.4-76.9 8.2-8.8 15-14.9 18.4-25.2 3.4-10.2-3.4-16.3-3.4-16.3l-9.5-15.6-18.4-32.7c0 0-8.2-17-12.2-27.2-4.1-10.2-12.3-37.4-12.3-37.4 0 0-6.1-24.5-6.8-40.2-2-28.5 2.1-44.9 9.5-72.8 10.2-36 32-51 40.9-86.4 2.7-10.2 3.4-27.9-2.1-27.2-4.7 1.4-4.7 15-8.8 24.5-14.3 35.4-33.4 51-43.6 87.8-6.8 25.2-9.5 39.4-9.5 65.3 0 14.3-0.7 12.2 3.4 37.4 1.4 9.5 4.1 15 6.8 23.8 2.1 6.1 7.5 18.4 7.5 18.4 0 0 7.5 16.3 10.2 27.9 0.7 4.1 1.4 6.1 1.4 10.2-0.7 6.8 0.6 8.2-2.8 14.3-4 7.5-1.3 12.2-14.2 15-10.9 2-34.7-5.5-34.7-5.5 0 0-96.6-29.2-158.5-21.1-12.3 2.1-19.1 6.1-31.3 6.1-10.9 0-17-8.8-27.9-5.4-2.1 0.7-2.7 2-4.8 3.4-16.3 11.6-4.1 29.9-46.9 20.4-26.5-6.1-58.5-22.4-53.1-32.6 7.5-13.7 17-15.7 38.1-24.5 22.5-8.9 55.8-6.2 62.6-6.8 8.2-0.7 19.7-6.8 34-6.8 24.5 0 29.3 2.7 29.3 2.7l42.1 3.4 81 1.3c0 0 14.3-0.6 20.4-2 6.1-0.7 10.2-12.3 13.6-17.7 3.4-5.4 0-13.6 0-13.6l-2.7-4.1-7.5-12.2-14.3-23.8-15.6-31.3c0 0-10.2-22.5-15.7-36.8-5.4-14.3-8.8-22.4-12.2-37.4-4.1-15.6-6.1-27.9-6.8-40.1-0.7-17.7-1.4-31.3 3.4-45.6 0.7-1.4 12.9 6.1 19.7 10.2 13.6 8.1 19.7 12.9 32 22.4 9.5 6.8 14.3 10.9 23.8 19.1 11.5 10.2 17.7 19 21.1 17 4.7-5.4-7.5-21.8-18.4-30.6-10.9-8.2-21.8-15.7-29.9-21.1-10.9-7.5-11.6-8.9-27.9-19.7-17-11.6-32-25.9-32-25.9l-17-13.6-26.5-22.5-29.3-27.2-22.4-24.5c0 0-17-21.1-19.8-25.1-2.7-4.1-10.8-17-17.6-27.9-5.5-9.6-17-25.2-18.4-26.6-6.1-7.4-20.4-4.7-36.7-14.3-20.4-11.5-25.2-22.4-25.2-22.4l-1.4-2.7-2-2.1-10.2-7.5-6.1-4c0 0-4.8-3.4-10.2-6.2-5.5-2.7-18.4-10.2-18.4-10.2l-23.1-14.9c0 0-9.6-7.5-12.3-9.6-3.4-2-8.8-5.4-8.8-5.4l-4.8-2-6.1-0.7c0 0-4.1-1.4-8.8 4.1-4.1 5.4-3.4 2.7 4 32.6 2.8 11.6 2.1 53.1 5.5 66 4.1 17 14.9 37.4 16.3 40.2 1.4 2.7 2 11.5 2 11.5 0 0-0.6 7.5 0 12.3 4.1 21.1 35.4 7.5 42.2 36.7 6.8 28.6-4.1 57.8-4.1 57.8 0 0-6.8 15-16.3 17-9.5 2.1-23.8-19-34.7-36-10.2-16.3-19-38.8-21.7-45.6-2.8-6.8-4.1-8.2-7.5-13.6-4.8-7.5-8.9-6.1-13.6-18.4-4.8-12.2 0-17-2.8-27.2-1.3-5.4-2.7-6.1-4.7-14.3-2.1-8.8-4.1-34.7-4.1-34.7l-3.4-24.5c0 0-1.4-10.9-2.7-17.7-4.8-23.8-6.8-47.6-6.8-47.6l-0.7-9.5-0.7-10.2c0 0-0.7-4.8 0.7-9.5 0.7-4.8 3.4-8.9 3.4-8.9 0 0 4.8-8.1 5.4-10.2 0.7-2 10.9-13.6 10.9-13.6 0 0 4.8-4.1 13.6-9.5 8.9-5.5 16.4-4.8 16.4-4.8 0 0 2.7-0.7 17.6 1.4 15.7 2 46.3 10.2 54.5 12.2 7.4 2.1 17 5.5 23.1 8.9 17.7 9.5 22.4 5.4 8.8-5.5-9.5-7.5-12.2-10.9-19.7-17.7-6.8-5.4-11.6-9.5-16.3-14.9-4.8-5.5-18.4-25.2-18.4-25.2l-8.2-12.2-5.4-5.5-2.7-2c0 0-5.5 0.6-11.6-0.7-5.4-1.4-8.1 6.8-8.1 6.8 0 0-12.3 23.1-25.2 37.4-20.4 23.1-35.4 38.8-42.9 51-10.2 17-8.1 35.4-13.6 44.3-3.4 4.7-4.7 5.4-6.8 10.2-5.4 13.6 14.3 21.1 9.5 36-7.4 23.2-62.5 47-70 42.9-7.5-4.1-1.4-36.1 1.3-46.3 2.8-10.2 10.2-25.8 10.9-26.5 0.7-0.7 2.7-4.1 3.4-7.5 0.7-2.7 0.7-9.5 1.4-13.6 0.7-4.1 2-10.2 2-10.2 0 0 0.7-1.4 5.5-12.3 4.7-10.8 23.1-35.3 36-59.1 8.2-15 11.6-24.5 20.4-40.2 7.5-14.3 21.1-36 21.1-36 0 0 5.5-10.9 8.2-15 2.7-4.1 8.1-11.6 13.6-19.7 5.4-8.2 6.8-13.6 13.6-20.5 5.4-5.4 9.5-8.1 17-10.8 11.6-4.1 19-2.1 30.6 1.3 12.3 2.7 20.4 8.2 27.9 15 7.5 6.1 13.6 13.6 13.6 13.6l4.1 5.4 1.3 2.8 7.5 4.7 16.4 10.9c0 0 39.4 26.5 41.5 27.9 2.7 1.4 9.5 6.8 10.8 7.5 1.4 0.7 12.3-10.9 32.7-25.2 23.8-16.3 32.6-15 40.1-19.7 7.5-4.8 10.9-8.2 17-14.3 9.6-9.5 9.6-14.3 19.8-27.2 10.2-12.9 20.4-20.4 20.4-20.4 0 0 1.3-1.4 20.4-22.5 19-21.1 27.2-37.4 27.2-37.4l10.2-20.4c0 0 14.9-32 19.7-44.9 4.8-12.9 4.8-17 4.8-17 0 0 0.7-3.4-2.7-9.5-3.5-6.9-7.5-3.4-14.3-2.1-14.3 3.4-22.5-0.7-36.1-2.7-12.9-2.1-19-6.1-32-8.2-12.9-2-20.4-4.1-33.3-2.7-1.4 0-5.4 0.7-7.5 1.4-7.5 2.7-9.5 2.7-14.9 6.1-6.2 2.7-10.2 4.1-17 4.1-4.8 0-7.5 0.7-12.3-1.4-3.4-0.7-4.8-2-7.5-4.1-1.3-1.3-2-2.7-3.4-4.1 0-1.3 0-1.3 1.4-3.4 1.3-2 2.7-2.7 2.7-2.7l7.5-0.7 8.8-2.7c0.7-0.7 8.9-2.7 12.3-4.1 3.4-1.3 7.5-3.4 7.5-3.4 0 0 2-3.4 1.3-5.4-0.7-2.7-5.4-2.7-5.4-2.7l-7.5 2.7-11.6 3.4c0 0-8.8 2-14.9 3.4-6.2 1.4-15.7 2-15.7 2l-2.7-0.6c0 0-2.7-2.1-3.4-4.1-0.7-2.1-0.7-3.4-1.4-5.5-1.3-8.1-3.4-12.9-1.3-21.1 0.7-3.4 1.3-4.7 2.7-8.1 0.7-2.7 2-4.1 3.4-6.8l15-22.5c3.4-3.4 5.4-5.4 9.5-7.5 6.1-3.4 9.5-4.7 17-5.4 7.5-1.4 8.2-0.7 19-3.4 10.9-2.7 18.4-6.8 18.4-6.8 0 0 25.2-9.5 40.8-17 16.3-8.2 23.2-16.3 40.2-23.2 6.8-2.7 10.8-4 18.3-6.1l1.4-2c0.7-2.7-3.4-3.4-6.1-3.4-2.8 0-8.2 2.7-9.6 0-0.6-2.1 5.5-3.4 5.5-3.4 0 0 2.7-2.1 2.7-3.4 0-2.7-4.1-1.4-6.1-1.4-10.2-1.3-10.9-2.7-17.7-4.7-8.2-2.1-12.9-4.8-21.1-4.8-7.5 0-14.3 1.4-19 2.7-4.1 1.4-4.8-3.4-2.8-4.1 13-6.1 13.6-6.1 22.5-6.8 5.4 0 12.2 1.4 12.9 1.4 0.7 0.7 10.9 0 13.6-2.7 2.1-2.8-8.8-2.8-13.6-4.8-4.8-2-11.6-2-11.6-5.4 0-3.4 3.4-1.4 6.2-2.1 3.4-0.7 4.7-0.7 8.1-0.7 6.2-0.6 6.8-1.3 15-2 8.2-0.7 20.4 2.7 20.4 2.7 0 0 12.9 5.5 19.1 8.2 6.1 3.4 13.6 4.7 13.6 4.7 0 0 8.8 1.4 15.6-2.7 6.8-4.1 3.4-6.8 0.7-10.9-2.1-4-4.8-8.8-0.7-19 3.4-8.9 5.4-19.1 6.8-19.7 1.4-0.7 6.8 6.8 10.2 10.2 12.3 11.5 28.6 17 44.2 41.5 1.4 1.3 6.8-1.4 25.2 1.3 17.7 2.8 33.3 21.8 37.4 26.6 4.1 4.7 9.5 4.7 9.5 4.7l8.9 1.4 31.3 0.7c0 0 14.3-2.8 22.4 0.6 6.1 2.1 25.2 15 16.3 19.8-6.1 3.4-12.2-4.1-17.6-4.8-6.2-0.7-8.9 0.7-15 2.1-12.3 3.4-38.8 10.8-29.3 14.2l2.1 0.7 4.7 0.7c0 0 11.6 2.7 18.4 5.4 10.2 4.1 15.7 8.9 25.2 14.3 6.1 3.4 8.1 6.2 14.3 8.2 5.4 1.4 9.5 0 14.9 0.7 7.5 1.3 11.6 2.7 18.4 6.1 10.2 4.8 14.3 10.2 23.1 17 4.1 3.4 8.2 3.4 11.6 8.2l2 2.7c1.4 4.1-6.8 1.4-10.9 0.7-4.7-0.7-6.8-2.7-10.8-4.8-6.8-2.7-9.6-6.1-16.4-7.5-4.7-0.6-8.1 0-12.9 0-4.8 0.7-7.5 1.4-12.2 1.4-8.9 0.7-13.6 0-21.8-2-9.5-2.1-13.6-5.5-23.1-7.5-10.2-2.1-29.3-10.9-27.2-2.1 0.6 4.8 10.8 8.2 10.8 8.2 0 0 6.8 4.1 13 6.8 6.8 2.7 10.2 6.8 10.2 6.8l2 9.5c0 0 4.1 6.8 10.2 13.6 6.1 6.8 16.3 6.8 16.3 6.8 0 0 6.2 0 19.8 2.8 13.6 2.7 27.2 10.8 27.2 10.8 0 0 10.2 6.8 16.3 14.3 6.1 7.5 2.7 10.9 2 11.6l-1.3 0.7-8.2-8.9-5.4-4.7c0 0-5.5-4.1-12.3-6.2-6.8-2-8.8-0.6-8.8-0.6 0 0-15 4-27.2 3.4-12.3-0.7-19.1-5.5-19.1-5.5l-8.1-5.4c0 0-11.6-11.6-12.3-6.1 0 3.4 5.5 7.4 5.5 7.4l6.1 6.2c4.8 4.7 6.8 7.4 12.2 12.2 5.5 4.8 8.9 4.8 8.9 4.8l4.1 0.7 3.4 0.6c0 0 1.3 0.7 10.2 4.1 8.1 3.4 17.7 10.9 17.7 10.9l2 0.7 4.8 1.3c0.6 0 3.4 0 8.1 0.7 5.5 0.7 3.4 4.1 3.4 4.1l-0.7 1.4-4 2.7c0 0-5.5 1.3-8.9 1.3-3.4 0-8.8-2-8.8-2l-10.9-4.1-13.6-3.4c-2.7-0.7-12.9-2-14.3-2.7-2 0-6.8-2-8.2-2.7-1.3-0.7-4-1.4-10.2-4.1-6.1-2.7-8.8-6.1-16.3-8.8-7.5-2.1-12.2-2.8-17.7 1.3-9.5 6.1 15 7.5 27.2 13.6 18.4 8.9 28.6 15.7 32.7 25.2 4.7 9.5 8.8 12.9 8.8 12.9 0 0 12.9 6.1 18.4 12.9 3.4 3.4 3.4 6.8 6.8 10.3 6.8 8.1 20.4 8.1 23.1 14.9 2.7 6.1-10.9 3.4-17.7 2.7-12.2-1.3-15.6-12.9-27.2-17.6-6.8-2.8-10.9-2.8-17.7-4.8-12.2-4.1-18.3-9.5-30.6-13.6-7.5-2.7-21.1-12.3-19.7-4.8l2 4.1 3.4 5.4c0 0 4.1 5.5 6.2 6.8 1.3 1.4 9.5 7.5 21 13.7 10.9 6.1 21.1 18.3 21.1 18.3 0 0 3.4 4.8 4.8 8.2 2 3.4 0.7 4.8 3.4 10.2 2.7 5.4 4.1 6.1 7.5 9.5 8.1 8.2 17 6.8 27.9 10.9 2.7 0.7 2.7 1.4 6.1 4.8 2.7 3.4-0.7 4.7-0.7 4.7 0 0-12.2 2.8-19.7 2.1-9.5-0.7-14.3-4.1-23.8-8.9-9.5-4.7-15-13.6-15.7-14.3-1.3-0.6-3.4-3.4-5.4-4.7-2-1.4-6.8-2.1-10.9-3.4-4.1-1.4-6.8-1.4-10.9-2.7-6.1-2.1-12.2-4.8-14.9-5.5-2.8-0.7-8.9-2-13.6 0.7-8.9 5.4 14.2 9.5 21.7 17 4.1 4.1 5.5 6.8 8.9 10.9 2.7 3.4 4 5.4 7.4 8.1 2.1 1.4 6.2 3.5 6.2 3.5 0 0 6.1 2.7 14.3 7.4 8.8 4.8 18.3 17.7 18.3 17.7l6.1 8.9 3.4 5.4 0.7 2.7 1.4 2.8c0 0 4.1 5.4 7.5 7.4 3.4 2.1 2.7 3.4 2.7 3.4 0 0-0.7 0.7-2.7 2.1-2.1 1.3-2.8 0-6.2-0.7-3.4-0.7-5.4-4.1-8.1-6.1-2.7-2.1-5.5-7.5-10.9-10.9-4.1-2-10.2-3.4-12.2-4.1-2.8-1.4-8.2-4.8-10.2-5.4-2.8-0.7-8.2-3.4-8.2-3.4 0 0-10.9-6.8-17-8.2-6.1-1.4-2.1 2-2.1 2 0 0 5.5 8.9 10.9 12.3 6.8 4.8 16.4 8.8 12.9 12.2-2 2.8-4.7 2.1-8.1 1.4-5.5-0.7-11.6-6.8-11.6-6.8 0 0-2.7-2-14.3-5.5-11.5-3.4-7.4 2.8-4.7 6.2 2.7 3.4 6.1 5.4 6.1 5.4l7.5 3.4 3.4 1.4c0 0 3.4 0 13.6 2.7 10.9 2.7 16.3 7.5 16.3 7.5 0 0 5.5 5.4 12.9 10.9 7.5 5.4 15.7 6.8 19.8 7.5 4 0.6 4 3.4 4 3.4l0.7 3.4-2 1.3-8.2 2.1c0 0-11.5-0.7-20.4-2.8-8.8-2-17-8.1-17.7-8.8-0.7 0-9.5-4.8-14.9-6.8-5.5-2.1-15-1.4-15.7-0.7-1.3 0-4.1 0.7-9.5 2-5.4 1.4 1.4 3.5 1.4 3.5l4 0.6 9.6 0.7c0 0 9.5 1.4 17.6 4.1 8.2 2.7 13 8.8 18.4 14.3 5.5 5.4 11.6 8.8 11.6 8.8l6.1 4.1 0.7 1.4-0.7 1.3-1.4 1.4-2.7-0.7c-1.3 0-6.8-3.4-11.5-5.4-4.8-2.1-7.5-4.1-12.3-5.5-4.8-1.3-10.2-2-11.6-1.3-1.3 0-10.8 2-17.6 2-6.8 0-13 0.7-21.8-0.7-12.3-1.3-28.6-10.9-30.6-8.1-4.1 5.4 8.8 7.4 14.9 10.8 8.2 4.8 23.2 9.6 23.2 9.6 0 0 10.9 2.7 17 5.4 14.3 6.1 18.3 15.7 29.2 25.9 6.2 6.1 10.9 8.1 19.1 9.5 7.5 1.4 6.8 0 18.3-2 10.9-2.1 17.7-13 21.1-8.9v2.7l-1.3 3.4c0 0-1.4 2.1-3.4 4.1-2.1 2.1-9.6 6.8-13.6 8.2-4.1 2-14.3 4.7-26.6 4.1-12.2-0.7-29.9-10.2-29.9-10.2l-12.9-5.5c0 0-5.5-2.7-9.5-4.1-10.2-3.4-17.1-3.4-27.9-6.1-6.8-1.4-10.9-3.4-17-4.8-6.2-1.3-2.8 1.4-2.1 2.1 2.7 4.1 6.8 5.4 11.6 7.5 6.8 3.4 10.9 2.7 17.7 5.4 7.5 2.7 13.6 6.8 17.7 9.5 4 2.8 6.8 5.5 10.8 9.6l13.6 11.5 3.4 3.4c0.7 0.7 2.1 4.1 1.4 8.2-0.7 4.8-4.1 1.4-4.1 1.4l-3.4-2.1-3.4-3.4-5.4-4.8c0 0-4.8-4.7-12.9-8.8-8.2-4.1-18.4-5.4-18.4-5.4 0 0-8.9-1.4-8.2 1.3 0.7 2.7 2.7 2.7 9.5 4.8 6.9 2 11.6 5.4 11.6 5.4 0 0 6.8 5.5 12.3 11.6 5.4 6.1 6.8 11.6 6.8 11.6 0 0 2.7 5.4 9.5 11.5 6.1 6.8 10.2 4.1 9.5 7.5-0.7 2.7-3.4 3.4-3.4 3.4h-2.7c-0.7 0-2.1-0.7-4.1-1.3-2-0.7-8.8-5.5-8.8-5.5l-12.3-9.5-11.5-8.9c0 0-6.2-4-10.3-6.1-4-2-10.2-4.1-13.6-5.4-3.4-0.7-9.5-1.4-9.5-1.4 0 0-7.5-1.4-11.5-2.7-7.5-2.7-15.7-10.2-16.4-10.9l-8.8-2.7c-1.4 0-4.1 12.9-4.8 19.7-3.4 29.9 4.8 49.7 17 76.9 17.7 39.5 67.4 89.1 67.4 89.1 0 0 12.2 7.5 17.7 11.6 14.9 11.6 39.4 27.9 61.2 49.7 19 18.3 43.5 51.7 43.5 51.7 0 0 14.3 19.7 21.1 34 8.2 17 15 43.5 15 43.5l1.3 5.5 2.8 2h8.8c0.7 0 10.2-0.7 17-2 6.8-2.1 21.8-8.9 32-14.3 10.2-5.5 22.4-15.7 22.4-15.7 0 0 2.7-2 14.3-14.9 12.3-13.6 19.7-33.4 22.5-40.9 2.7-7.4 4.7-21.7 6.8-46.2 2-24.5-1.4-50.4-1.4-50.4 0 0-4.8-36-7.5-48.3-2.7-12.2-9.5-32-9.5-32 0 0-4.8-17.6-6.1-29.2-2.1-10.9-2.1-29.3-2.1-29.3 0 0 0-11.5 3.4-31.9 3.4-20.5 16.4-41.5 16.4-41.5 0 0 3.4-6.8 17-23.2 13.6-16.3 18.3-19 31.9-29.2 10.9-8.2 25.2-20.4 30-17.7 5.4 3.4-4.8 9.5-8.2 12.9-8.2 8.2-24.5 23.8-37.4 46.3-11.6 19.7-15.7 32.6-18.4 45.6-2.7 12.9-2 27.2-1.3 31.9 0 5.5 2.7 3.4 2.7 3.4 0 0 27.9-21.7 42.8-38.7 15.7-18.4 30.6-51.1 36.1-51.1 4.1-0.7 5.4 8.2 4.8 12.3-3.4 17-4.8 19-10.3 29.9-6.1 12.3-11.5 18.4-20.4 29.9-9.5 12.3-13.6 17.1-21 33.4-10.2 23.1-4.1 41.5-4.1 41.5 0 0 1.3 10.9 6.1 10.9 8.8 0 26.5-23.2 38.8-42.2 8.8-13.6 11.5-29.9 17.7-38.1 5.4-7.5 9.5 12.2 6.8 24.5zm-450.4-147l-3.4-4.7-2-0.7c0 0-2.7-0.7-4.8 0.7-2 1.3-1.3 2-1.3 2 0 0 2.7 2.7 4.7 2.7 2.1 0.7 6.2 2.1 6.8 0zm8.9-21.7c0-1.4-3.4-4.8-4.1-5.5l-2-1.4c0 0-3.4-0.6-5.5 0.7-2 1.4-1.3 2.7-1.3 2.7 0 0 3.4 2.1 5.4 2.8 2.7 0.7 7.5 2.7 7.5 0.7zm9.5-22.5c0-2-3.4-5.4-4.8-6.8l-2.7-1.4c0 0-4.1-0.6-6.8 0.7-2.7 1.4-2 2.7-2 2.7 0 0 4.1 2.8 6.8 3.4 2.7 0.7 8.8 3.4 9.5 1.4zm6.1-21.1c0-2-3.4-5.4-4.7-6.8l-2.8-1.4c0 0-4-0.6-6.8 0.7-2.7 1.4-2 2.7-2 2.7 0 0 4.1 2.8 6.8 3.4 2.7 0 8.8 2.8 9.5 1.4zm6.8-25.8c0-2.1-4.1-6.2-5.4-7.5l-2.7-1.4c0 0-4.8-1.4-7.5 0.7-2.7 2-2.1 3.4-2.1 3.4 0 0 4.1 3.4 7.5 4.1 2.7 0 10.2 3.4 10.2 0.7zm6.1-26.6c-0.6-2.7-5.4-8.1-6.8-9.5l-3.4-2c0 0-5.4-0.7-8.8 1.3-4.1 2.1-2.7 4.1-2.7 4.1 0 0 5.4 4.1 9.5 4.8 4.1 0.6 12.2 4 12.2 1.3zm4.8-27.2c-0.7-3.4-6.1-9.5-8.2-11.6-2-1.3-4-2-4-2 0 0-6.8-1.4-10.9 1.4-4.1 2.7-2.7 4.7-2.7 4.7 0 0 6.8 5.5 11.5 6.1 4.8 0.7 15 4.8 14.3 1.4zm6.8-30.6c-0.7-3.4-7.5-10.9-9.5-12.9-2.1-2.1-4.8-2.8-4.8-2.8 0 0-7.5-2-12.2 1.4-4.8 2.7-3.4 5.4-3.4 5.4 0 0 7.5 6.2 12.9 6.8 5.4 0.7 17 6.2 17 2.1zm-6.8-126.6c0-2.7-5.4-7.4-6.8-8.8-1.4-1.4-3.4-2-3.4-2 0 0-5.4-1.4-9.5 0.6-4.1 2.1-2.7 3.4-2.7 3.4 0 0 5.4 4.1 9.5 4.8 4.1 0.7 12.9 4.1 12.9 2zm-5.4 18.4c-2.1-1.3-4.1-2-4.1-2 0 0-5.5-1.4-9.5 1.3-4.1 2.1-2.8 4.1-2.8 4.1 0 0 6.2 4.8 10.2 5.5 4.8 0.6 14.3 4 13.7 1.3-0.7-2.7-5.5-8.1-7.5-10.2zm-15 64.6c0 0 6.8 5.5 11.6 6.2 4.7 1.3 14.9 5.4 14.3 2-0.7-3.4-6.2-9.5-8.2-11.6-2.1-1.3-4.1-2-4.1-2 0 0-6.8-1.4-10.9 1.4-4.1 2.7-2.7 4-2.7 4zm25.9-25.8c-0.7-3.4-6.2-9.5-8.2-11.6-2.1-1.3-4.1-2-4.1-2 0 0-6.8-1.4-10.9 1.3-4.1 2.8-2.7 4.8-2.7 4.8 0 0 6.8 5.5 11.6 6.1 4.7 1.4 14.9 5.5 14.3 1.4zm-27.9-104.8c-4.8 0-11.6-5.4-13 0-1.3 5.5-2 7.5-2 7.5 0 0-2.7 10.9 8.2 6.8 11.5-4.1 5.4-2 13.6-6.1 8.1-4.1 7.4-1.4 13.6-1.4 2 0 3.4 0 6.1-0.7 2.7 0 1.4-3.4-4.1-4.7-6.1-1.4-13.6-1.4-22.4-1.4zm-16.4-39.4c-4 2-2.7 4-2.7 4 0 0 5.5 4.1 9.5 4.8 3.4 0.7 12.3 4.1 11.6 1.4-0.7-2.8-5.4-8.2-6.8-9.6l-3.4-2c0 0-4.8-1.4-8.2 1.4zm-18.3-30c0 0 5.4 4.1 9.5 4.8 3.4 0.7 12.2 4.1 11.6 1.3-0.7-2.7-5.5-8.1-6.8-9.5l-3.4-2c0 0-5.5-0.7-8.9 1.3-3.4 2.1-2 4.1-2 4.1zm-5.5 438.2c0 0 2.7 2.7 4.8 2.7 2 0 6.1 2 6.1 0.7l-3.4-4.8-2-0.7c0 0-2.8-0.6-4.8 0.7-2 0.7-0.7 1.4-0.7 1.4zm-264.6-330.7c0-6.1-7.5-8.8-11.6-8.8 0 0-4 0-7.4 5.4-2.8 5.5-4.8 10.9-4.8 10.9 0 0-1.4 7.5 1.4 9.5 2 2.1 5.4-4.7 8.8-7.5 2.7-2 4.1-2.7 6.1-4 3.4-2.1 8.2 0.6 7.5-5.5zm56.5 18.4c0-5.5-8.2-1.4-8.2-1.4 0 0-4.1 0.7-3.4 5.5 0.7 4.7 3.4 4.1 3.4 4.1 0 0 8.9-3.4 8.2-8.2zm59.8-85.7c-2.7 2.7-12.2 8.8-20.4 13.6-14.9 8.1-41.5 15.6-41.5 15.6 0 0-1.3 2.1 2.1 2.1 23.1-2.1 31.3-4.8 43.5-10.2 12.3-5.5 21.1-19.8 21.1-19.8 0 0 4.8-9.5-4.8-1.3zm-454.4 578.9c-5.4-1.3-6.1 8.2-6.8 11.6-0.7 3.4 2.1 9.5 3.4 9.5 1.4 0 5.5-6.1 5.5-9.5 0-3.4 2-10.9-2.1-11.6zm23.8-80.2c-2.7-2.8-4.7 4-10.2 8.8 0 0-4 8.9-2 13.6 2 5.5 8.2-7.5 8.2-7.5 0 0 6.1-12.2 4-14.9zm84.4-131.3l-1.4-1.4c0 0-4.1-1.4-8.8 6.1-4.8 6.8-27.2 40.8-23.1 45.6 4 6.1 23.1-29.9 29.2-36.7 6.1-6.8 3.4-13.6 4.1-13.6zm55.8-43.6c0.6-3.4-0.7-4.1-8.2-5.4 0 0-9.5 2-12.2 6.8-2.1 4.7 11.5 2 11.5 2 0 0 9.5 0 8.9-3.4zm37.4 79.6l-8.9-8.8-3.4-1.4-1.3-0.7h-1.4c0 0-2 8.2 6.8 17.7 8.9 10.2 10.9 18.4 17 12.3 1.4-1.4-6.1-15-8.8-19.1zm-95.3 219.8c0 0-7.4-30.6-7.4-33.4-0.7-9.5-0.7-21.7-0.7-21.7v-2.1c0 0 0-3.4-4.1-3.4 0 0-2.7-0.7-3.4 2.1-0.7 2.7-0.7 7.4-1.4 12.9 0 4.1 1.4 15.6 1.4 15.6 0 0 0.7 8.9 2.7 14.3 2.1 6.1 7.5 14.3 7.5 14.3 0 0 2 4.1 4.1 4.1 2.7 0 1.3-2.7 1.3-2.7zm1.4-150.4l-1.4-1.3c0 0-4-0.7-8.1 7.4-4.1 8.2-2.7 10.9-2.7 11.6 0 0 3.4 0 8.1-7.5 4.8-7.5 4.1-10.2 4.1-10.2zm51.7 310.3c0 0 2.7 4 6.8 2 4.1-1.4 2.7-6.1 2.7-6.1 0 0-3.4-6.2-6.8-6.8 0 0-8.8-6.8-10.2-4.1-1.3 2.7 7.5 15 7.5 15zm61.2-230l-4.1-3.4c0 0-9.5-6.1-14.9-9.5-6.1-3.4-13.6-6.8-14.3-6.8l-15-6.2c0 0-6.1-2-7.5-2-1.3 0-2 1.4-2.7 2-6.1 5.5 7.5 6.8 15.7 10.9 8.1 4.1 28.5 19.8 38.1 21.8 9.5 2 4.7-5.4 4.7-6.8zm74.9-131.3c-4.1 1.3-14.3 8.8-21.1 23.1-6.2 11.6-17.7 33.4-15.7 35.4 2.1 2 12.9-17.7 21.8-30.6 6.8-9.5 18.4-25.2 18.4-25.2 0 0 5.4-6.8-3.4-2.7zm-42.9 681c0 0-7.5 2.1-8.2 4.8 0 2.7 4.8 5.4 5.5 5.4 0.7 0 2.7 2.1 7.5-1.3 4.7-3.4 4.7-6.2 4.7-6.2 0 0 3.4-3.4-9.5-2.7zm122.4-3.4c0 0 0-2.7-5.4-2.7-5.4 0-6.8 1.4-6.8 2-0.7 0.7 0 2.1 4.8 2.8 5.4 0.6 7.4 0 7.4-2.1zm115 4.1c-9.5 0-6.1 0.7-12.2 0.7-10.9 0.7-16.4 0-27.2-0.7-15-0.7-38.1-4.8-38.1-4.8 0 0-2.8-0.6-4.1 1.4-1.4 1.4 2.7 5.4 6.1 6.8 18.4 5.4 19.7 4.8 32.7 4.8 7.4 0 10.8-0.7 18.3-1.4 8.9-0.7 12.9 0.7 23.1-2 2.8-0.7 4.8-5.5 1.4-4.8zm65.3-20.4c0 0-2-2.1-6.1 0-3.4 2-6.1 6.1-6.1 6.1 0 0-2.1 3.4 2 2.7 3.4-0.6 7.5-2 8.2-2.7 0.6-0.7 3.4-3.4 2-6.1zm32.7-111.6c-2.8 10.9 0.6 33.4 4 38.1 9.6 10.9 3.4-17.7 4.8-27.9 0.7-9.5 2-12.9 6.8-23.1 8.9-18.4-10.9-11.6-15.6 12.9zm-112.3 398.7c0-2.7-1.3-4.8-1.3-4.8 0 0-2.8-5.4-6.2-3.4-3.4 2.1-5.4 2.8-8.8 7.5l-4.8 6.8c-0.6 0.7-4.7 7.5 2.8 8.2 12.9 0.7 4.7-7.5 8.8-10.2 3.4-2.7 9.5-2.1 9.5-4.1zm63.3-70.8c0 0-2.1-2-5.5 0-3.4 1.4-7.4 6.2-7.4 6.8 0 0.7-2.1 3.4-0.7 5.5 1.3 2 5.4-1.4 6.1-1.4l6.1-4.7c0 0 3.4-1.4 1.4-6.2zm30.6-1190.6c-11.6 11.6-42.2 14.3-41.5 16.3 0.7 2.1 26.5 1.4 33.3-0.6 5.5-2.1 8.2-10.9 8.2-10.9 0 0 2.7-7.5 0-4.8zm-38.1 4.8c1.4 2 16.3-2.1 22.4-5.5 4.8-2.7 6.9-11.5 6.9-11.5 0 0 1.3-8.9-0.7-5.5-8.9 15-28.6 21.1-28.6 22.5zm-23.8-121.8c0.7 3.4 5.4 1.4 8.8 2.7 3.4 1.4 5.5 2.1 8.2 4.1 2 1.4 2 4.8 4.1 4.8 3.4 0 2.7-1.4 2.7-1.4 0 0-2.7-8.2-6.8-10.9-4.1-2-6.8-2-6.8-2 0 0-10.2-1.4-10.2 2.7zm-21.8 24.5c1.4 4.1 9.5-2 15 0 4.8 1.4 6.8 2.7 10.2 6.8 2.7 4.1 8.2 8.8 11.6 6.1 3.4-2.7 2-10.2 2-10.2 0 0-4.1-11.6-8.8-15-4.8-3.4-8.9-3.4-8.9-3.4 0 0-7.5 0-12.9 3.4-6.1 3.4-7.5 7.5-7.5 7.5 0 0-0.7 3.4-0.7 4.8zm23.2 85.7c2-2 11.5-15.6 11.5-15.6 0 0 8.2-6.8 10.9-12.3 6.1-11.5-17 12.9-29.2 19.1-7.5 4.1-19.1 8.8-19.1 8.8 0 0-2.7 4.1 1.4 3.4 4.7-0.7 15.6 3.4 24.5-3.4zm-122.5 273.5c1.4 3.4 6.8 0.7 6.8 0.7 0 0 12.3-4.8 25.9-5.4 13.6-0.7 31.9 3.4 31.9 3.4l10.2 2.7 6.8 3.4c1.4 0 5.5 2 8.2 0 2.7-2.1-15.6-19.1-34.7-21.8-32-4.1-52.4 9.5-52.4 9.5l-0.7 1.4c0 0-2.7 2-2 6.1zm100 408.2c-1.4-4.7-44.2-42.1-80.9-81.6-34.7-37.4-57.9-71.4-64-66-6.8 6.8 50.4 80.3 97.3 116.3 17.7 13.6 50.3 39.5 47.6 31.3zm66-595.3c-4.1 4.8-9.5 29.3-18.4 47.6-12.2 25.9-38.8 62.6-38.8 62.6 0 0-6.1 12.3 3.4 5.5 0 0 27.3-25.9 47-59.9 11.6-20.4 16.3-67.3 6.8-55.8zm97.3 466.7c1.3-2-32.7-27.8-53.8-61.2-14.9-23.8-23.1-43.5-25.1-63.3 0-2.7 0.6-14.2-5.5-14.9-6.8-1.4-6.8 9.5-5.4 17 4.7 33.3 19.7 59.9 40.1 84.3 12.3 15 46.3 41.5 49.7 38.1zm-14.3 564.7v-2.7c-1.4-1.3-4.8 0.7-7.5 2.1-2 1.3-3.4 2.7-5.4 4-2.1 1.4-7.5 7.5-7.5 7.5l-15 15-19 17.7-4.1 4.7-4.1 6.2-0.7 1.3v3.4h2.7c0 0 19.8-14.9 31.3-25.8 12.3-11.6 30-31.3 29.3-33.4zm-10.9-471.4c-10.2 10.8-14.3 25.1-8.2 35.3 6.2 10.2 8.2-14.9 14.3-22.4 5.5-6.1 8.9-5.5 17.7-11.6 15-10.9-11.6-15.6-23.8-1.3zm53.1 454.4c0 0-1.4 4.1 2 4.8 2.7 0 8.2-7.5 8.2-8.2l-1.4-2.7c0 0-2-0.7-6.1 0.7-4.1 1.4-2.7 5.4-2.7 5.4zm135.3-330.6c-3.4-6.8-6.1-8.2-7.5-8.2 0 0-6.8 2.1-6.8 8.9 0 6.8 1.4 12.9 1.4 21.1 0 10.2-9.5 22.4-3.4 26.5 10.9 6.8 19.7-41.5 16.3-48.3zm184.4-200l-1.4-2.1c0 0-2.7-4.1-4.8 1.4 0 4.7 0.7 8.1 0.7 8.1l1.4 41.5c0 0-1.4 20.5-8.2 42.2-12.2 36.1-43.5 52.4-48.3 65.3-7.5 21.8 27.9-5.4 48.3-31.9 17-21.8 18.4-42.2 19.8-70.8 0.6-20.4-7.5-52.4-7.5-53.7z"/>
</svg>